<svg height="480pt" viewBox="0 0 480 480" width="480pt" xmlns="http://www.w3.org/2000/svg"><path d="m240 480c-132.546875 0-240-107.453125-240-240s107.453125-240 240-240 240 107.453125 240 240c-.148438 132.484375-107.515625 239.851562-240 240zm0-464c-123.710938 0-224 100.289062-224 224s100.289062 224 224 224 224-100.289062 224-224c-.140625-123.652344-100.347656-223.859375-224-224zm0 0"/><path d="m256 404.097656c-14.851562.023438-29.097656-5.871094-39.59375-16.378906l-124.453125-124.453125c-21.839844-21.886719-21.839844-57.316406 0-79.203125l39.589844-39.597656 56.578125 56.566406-28.289063 28.28125 90.511719 90.519531 28.28125-28.289062 56.574219 56.578125-39.597657 39.597656c-10.496093 10.511719-24.75 16.402344-39.601562 16.378906zm-124.457031-237-28.277344 28.285156c-15.597656 15.632813-15.597656 40.9375 0 56.570313l124.453125 124.453125c15.628906 15.59375 40.933594 15.59375 56.5625 0l28.285156-28.285156-33.941406-33.953125-28.28125 28.296875-113.136719-113.144532 28.289063-28.28125zm0 0"/><path d="m304 240h-16c-.027344-26.5-21.5-47.972656-48-48v-16c35.328125.039062 63.960938 28.671875 64 64zm0 0"/><path d="m360 240h-16c-.066406-57.410156-46.589844-103.933594-104-104v-16c66.242188.074219 119.925781 53.757812 120 120zm0 0"/><path d="m416 240h-16c-.101562-88.324219-71.675781-159.898438-160-160v-16c97.15625.109375 175.890625 78.84375 176 176zm0 0"/></svg>